{"title":"Godzilla 2014 - NoLOGO - ColourDeluxe.avi","uid":10174634,"size":795022718,"categoryP":"video","categoryS":"movies","magnet":"?xt=urn:btih:82e3291e436d9b036ccfc53ded57adf6f0d70863&amp;dn=Godzilla+2014+-+NoLOGO+-+ColourDeluxe.avi&amp;tr=udp%3A%2F%2Ftracker.openbittorrent.com%3A80&amp;tr=udp%3A%2F%2Fopen.demonii.com%3A1337&amp;tr=udp%3A%2F%2Ftracker.coppersurfer.tk%3A6969&amp;tr=udp%3A%2F%2Fexodus.desync.com%3A6969","seeders":0,"leechers":0,"uploader":"globeplus","files":-1,"time":1400450803,"description":"GODZILLA 2014 _ NoLOGO _ ColourDeluxe\n\nGodzilla 2014 - NoLOGO - ColourDeluxe.avi\nFormat                                   : AVI\nFormat/Info                              : Audio Video Interleave\nFile size                                : 758 MiB\nDuration                                 : 2h 2mn\nOverall bit rate                         : 863 Kbps\nWriting application                      : Lavf52.78.5\nWriting library                          : VirtualDub build 32842/release\n\nVideo\nID                                       : 0\nFormat                                   : MPEG-4 Visual\nFormat profile                           : Advanced Simple@L5\nFormat settings, BVOP                    : 2\nFormat settings, QPel                    : No\nFormat settings, GMC                     : No warppoints\nFormat settings, Matrix                  : Default (H.263)\nMuxing mode                              : Packed bitstream\nCodec ID                                 : XVID\nCodec ID/Hint                            : XviD\nDuration                                 : 2h 2mn\nBit rate                                 : 499 Kbps\nWidth                                    : 720 pixels\nHeight                                   : 304 pixels\nDisplay aspect ratio                     : 2.35:1\nFrame rate                               : 29.970 fps\nColor space                              : YUV\nChroma subsampling                       : 4:2:0\nBit depth                                : 8 bits\nScan type                                : Progressive\nCompression mode                         : Lossy\nBits/(Pixel*Frame)                       : 0.076\nStream size                              : 438 MiB (58%)\nWriting library                          : XviD 64\n\nAudio\nID                                       : 1\nFormat                                   : PCM\nFormat settings, Endianness              : Little\nFormat settings, Sign                    : Unsigned\nCodec ID                                 : 1\nDuration                                 : 2h 2mn\nBit rate mode                            : Constant\nBit rate                                 : 352.8 Kbps\nChannel(s)                               : 2 channels\nSampling rate                            : 22.05 KHz\nBit depth                                : 8 bits\nStream size                              : 310 MiB (41%)\nAlignment                                : Aligned on interleaves\nInterleave, duration                     : 33 ms (1.00 video frame)\nInterleave, preload duration             : 500 ms\n\nPlot\n\nThe film begins with film reels showing the preparation and detonation of a nuclear bomb at Bikini Atoll. A huge figure with jagged spikes rises from the water when the bomb is detonated.\n\nIn 1999, scientists Ishiro Serizawa and Vivienne Graham (Ken Watanabe and Sally Hawkins) are called to a quarry in the Philippines where a colossal skeleton and two egg-shaped pods have been discovered. They realize one of the pods has hatched, and the Janjira Nuclear Plant near Tokyo, Japan starts experiencing seismic activity. Plant supervisor Joe Brody (Bryan Cranston) sends his wife Sandra (Juliette Binoche) and a team into the core to look for damage. The monster travels to the plant, causing an explosion and radiation leak. Sandra and her team are not able to escape, and the plant collapses into ruin. The disaster, attributed to an earthquake, results in the evacuation and quarantine of the Janjira area.\n\n\n\n* enjoy ...","torrent":{"xt":"urn:btih:82e3291e436d9b036ccfc53ded57adf6f0d70863","amp;dn":"Godzilla+2014+-+NoLOGO+-+ColourDeluxe.avi","amp;tr":["udp%3A%2F%2Ftracker.openbittorrent.com%3A80","udp%3A%2F%2Fopen.demonii.com%3A1337","udp%3A%2F%2Ftracker.coppersurfer.tk%3A6969","udp%3A%2F%2Fexodus.desync.com%3A6969"],"infoHash":"82e3291e436d9b036ccfc53ded57adf6f0d70863","infoHashBuffer":{"type":"Buffer","data":[130,227,41,30,67,109,155,3,108,207,197,61,237,87,173,246,240,215,8,99]},"announce":[],"urlList":[]}}